<svg width="52" height="52" viewBox="0 0 52 52" fill="none" xmlns="http://www.w3.org/2000/svg">
<path d="M26.2714 4.33337V20.2842C26.2714 20.3519 26.2037 20.4197 26.136 20.4197C25.662 20.6267 25.2558 20.8317 24.7818 21.0368C24.1724 21.3096 23.4953 21.5843 22.8859 21.9267L20.6514 22.9521L18.8232 23.7743L16.5887 24.8016C15.9793 25.0763 15.3699 25.349 14.6928 25.6915C14.2188 25.8965 13.6771 26.1713 13.2031 26.3763C13.1354 26.3763 13.1354 26.444 13.0677 26.3763H13C13.2031 26.0339 13.4063 25.7592 13.6094 25.4187C14.6928 23.5692 15.8439 21.7217 16.9273 19.8722C18.0784 17.8892 19.2972 15.9023 20.4483 13.9174C21.5316 12.0699 22.615 10.2223 23.6984 8.44249C24.5109 7.07085 25.3235 5.77272 26.0683 4.40109C26.2037 4.40109 26.2037 4.33337 26.2714 4.33337C26.2037 4.33337 26.2714 4.33337 26.2714 4.33337V4.33337Z" fill="#8C8C8C"/>
<path d="M39.4074 26.3764C38.3917 27.0613 37.3083 27.6765 36.2927 28.2917C32.9748 30.2785 29.7247 32.1957 26.4068 34.1806C26.3391 34.1806 26.3391 34.2484 26.2714 34.2484C26.2037 34.2484 26.2037 34.1806 26.2037 34.1806V20.4198C26.2037 20.3521 26.2714 20.3521 26.3391 20.3521C26.6099 20.4875 26.8808 20.6268 27.2193 20.7622C28.0319 21.1743 28.9121 21.5167 29.7246 21.9268C30.4695 22.2692 31.1466 22.6117 31.8914 22.8845C32.6362 23.2269 33.3134 23.5693 34.0582 23.9117C34.6676 24.1864 35.3447 24.4592 35.9541 24.8017C36.5635 25.0764 37.2406 25.3491 37.85 25.6916C38.324 25.8966 38.798 26.1714 39.3397 26.3764C39.3397 26.3087 39.3397 26.3764 39.4074 26.3764V26.3764Z" fill="#141414"/>
<path d="M26.2715 47.6667C26.2715 47.6667 26.2038 47.6667 26.2715 47.6667C26.2038 47.6667 26.2038 47.6667 26.1361 47.5971C24.7818 45.6818 23.4953 43.8323 22.1411 41.9151L18.0784 36.1655C16.7919 34.3179 15.4377 32.4704 14.1512 30.5512L13.1355 29.1138C13.1355 29.0461 13.0678 29.0461 13.0678 28.9784C13.1355 28.9784 13.1355 29.0461 13.2032 29.0461C15.0314 30.1411 16.9273 31.2361 18.7555 32.3311C20.8546 33.6331 23.0214 34.8654 25.1204 36.1655C25.459 36.3705 25.8652 36.5756 26.2038 36.7807C26.2715 36.7807 26.2715 36.8503 26.2715 36.918V47.6667Z" fill="#8C8C8C"/>
<path d="M13 25.6598C13 25.5921 13 25.5921 13 25.6598C13.6771 25.3174 14.3542 25.0446 15.0313 24.7022L17.6721 23.4698C18.3492 23.1274 19.0263 22.8546 19.7034 22.5122C20.6514 22.0324 21.6671 21.6223 22.615 21.1425C23.2921 20.8678 23.9692 20.5253 24.6464 20.2526C25.1203 20.0475 25.5943 19.8424 26.0683 19.5677C26.136 19.5677 26.136 19.5 26.2037 19.5V33.464C26.136 33.5337 26.136 33.464 26.0683 33.464C25.8652 33.3286 25.662 33.2589 25.5266 33.1216L13.1354 25.7294C13.0677 25.6598 13 25.6598 13 25.6598ZM39.2043 28.1941C39.2043 28.2619 39.2043 28.2618 39.1366 28.3296C35.2093 33.9438 31.2821 39.4884 27.3548 45.1026C26.9485 45.7178 26.5423 46.2653 26.136 46.8825V35.9964C27.0163 35.4489 27.8965 34.9014 28.7767 34.4236L39.1366 28.2618C39.1366 28.1941 39.2043 28.1941 39.2043 28.1941V28.1941Z" fill="#3C3C3B"/>
<path d="M26.2714 20.3519V4.40491L39.272 26.1731C39.3397 26.2409 39.4074 26.3086 39.4074 26.3782C39.1366 26.2428 38.8658 26.1035 38.5272 25.9681C38.1886 25.8307 37.8501 25.6256 37.5115 25.4883C37.3084 25.4206 37.1053 25.2832 36.8344 25.2136C36.4959 25.0782 36.0896 24.8712 35.751 24.7357C35.5479 24.6661 35.3448 24.5307 35.1416 24.461L33.7197 23.8458C33.4488 23.7084 33.2457 23.6407 32.9749 23.5034C32.6363 23.366 32.2978 23.161 31.9592 23.0236C31.7561 22.9559 31.5529 22.8185 31.3498 22.7508L29.9279 22.1337C29.657 21.9983 29.4539 21.9286 29.183 21.7913C28.8445 21.6558 28.5059 21.4488 28.1674 21.3115C27.9642 21.176 27.6934 21.1064 27.4902 20.971L26.2714 20.3538V20.3519Z" fill="#343434"/>
</svg>
